<svg xmlns="http://www.w3.org/2000/svg" version="1.1" xmlns:xlink="http://www.w3.org/1999/xlink" xmlns:svgjs="http://svgjs.com/svgjs" width="1440" height="560" preserveAspectRatio="none" viewBox="0 0 1440 560"><g mask="url(&quot;#SvgjsMask2507&quot;)" fill="none"><rect width="1440" height="560" x="0" y="0" fill="url(#SvgjsRadialGradient2508)"></rect><path d="M104.23090151362743 218.73785602150377L269.0357110737156 233.15640855256026 118.64945404468392 53.933046461415586z" fill="rgba(28, 83, 142, 0.4)" class="triangle-float3"></path><path d="M981.823,439.871C1021.19,442.474,1060.478,423.38,1079.842,389.006C1098.903,355.169,1093.05,312.952,1071.534,280.621C1052.18,251.538,1016.75,242.442,981.823,241.72C945.192,240.962,903.688,244.996,885.447,276.772C867.253,308.466,885.359,345.912,903.95,377.375C922.098,408.087,946.228,437.517,981.823,439.871" fill="rgba(28, 83, 142, 0.4)" class="triangle-float3"></path><path d="M846.93,630.824C877.479,630.264,902.382,607.799,916.061,580.478C928.347,555.939,923.161,528.211,910.494,503.866C896.497,476.964,877.206,449.352,846.93,447.608C814.345,445.731,784.864,467.055,769.274,495.73C754.349,523.18,757.695,556.006,773.266,583.095C788.894,610.282,815.576,631.399,846.93,630.824" fill="rgba(28, 83, 142, 0.4)" class="triangle-float3"></path><path d="M1279.9817175829382 254.1418495974503L1284.458274873682 339.5596511525804 1365.3995191380684 249.66529230670636z" fill="rgba(28, 83, 142, 0.4)" class="triangle-float3"></path><path d="M1395.16,34.898C1412.814,36.558,1433.782,36.663,1442.947,21.483C1452.27,6.041,1443.147,-13.024,1433.166,-28.049C1424.445,-41.177,1410.917,-50.079,1395.16,-50.448C1378.711,-50.833,1361.714,-44.407,1353.943,-29.904C1346.488,-15.989,1352.288,0.434,1360.76,13.754C1368.502,25.926,1380.797,33.547,1395.16,34.898" fill="rgba(28, 83, 142, 0.4)" class="triangle-float1"></path><path d="M1344.059134021209 308.7074726920421L1298.2414035020659 398.62983194731646 1433.9814932764834 354.52520321118527z" fill="rgba(28, 83, 142, 0.4)" class="triangle-float3"></path><path d="M186.2746487942463 108.27039314428157L263.1576275963935 182.51542274724522 337.40265719935724 105.63244394509802 260.51967839721 31.38741434213435z" fill="rgba(28, 83, 142, 0.4)" class="triangle-float2"></path><path d="M960.3301692844448 174.12948579052664L977.4396575044794 271.7059073083879 1044.7393100803777 217.20772321285432z" fill="rgba(28, 83, 142, 0.4)" class="triangle-float2"></path><path d="M1221.5050334775738 530.3935900848405L1316.417213477167 661.0289986687865 1447.0526220611132 566.1168186691931 1352.1404420615197 435.48141008524715z" fill="rgba(28, 83, 142, 0.4)" class="triangle-float3"></path><path d="M583.359,685.39C629.36,684.509,665.696,650.095,687.434,609.545C707.863,571.437,712.076,525.026,688.895,488.526C667.078,454.173,624.034,446.947,583.359,445.669C539.431,444.289,489.94,444.868,465.679,481.515C439.585,520.931,448.509,572.729,472.14,613.669C495.776,654.617,536.088,686.296,583.359,685.39" fill="rgba(28, 83, 142, 0.4)" class="triangle-float2"></path><path d="M631.1185030105479 232.89809002929783L716.5179241450702 177.43905748986714 661.0588916056395 92.03963635534487 575.6594704711172 147.49866889477556z" fill="rgba(28, 83, 142, 0.4)" class="triangle-float2"></path><path d="M585.2678511963692 490.8266222549682L571.3068560951609 434.8321292898548 494.29561419809494 483.77086842422386z" fill="rgba(28, 83, 142, 0.4)" class="triangle-float2"></path><path d="M1255.5596322239207 362.2889943464038L1397.4875139912142 324.4044676253185 1308.2856145201188 232.03319667530036z" fill="rgba(28, 83, 142, 0.4)" class="triangle-float1"></path><path d="M64.125,313.693C99.67,315.096,141.095,315.784,159.591,285.397C178.497,254.337,160.605,216.563,142.409,185.082C124.234,153.638,100.436,119.461,64.125,120.23C28.545,120.984,7.963,156.792,-8.617,188.282C-23.709,216.946,-35.376,250.321,-19.123,278.343C-2.911,306.294,31.838,312.419,64.125,313.693" fill="rgba(28, 83, 142, 0.4)" class="triangle-float1"></path><path d="M1222.66,435.052C1259.752,435.358,1300.228,430.579,1320.124,399.273C1341.153,366.184,1337.436,321.85,1315.066,289.652C1295.22,261.086,1257.443,259.183,1222.66,258.986C1187.371,258.786,1148.325,259.451,1128.423,288.594C1106.443,320.781,1106.849,364.913,1127.939,397.69C1147.623,428.282,1186.283,434.752,1222.66,435.052" fill="rgba(28, 83, 142, 0.4)" class="triangle-float1"></path><path d="M100.47,543.72C134.845,541.995,156.454,511.393,174.527,482.102C194.002,450.538,218.907,413.792,200.502,381.592C182.035,349.282,137.617,350.28,100.47,352.536C68.25,354.493,36.886,365.402,19.482,392.587C0.62,422.05,-4.213,459.409,12.311,490.244C29.711,522.714,63.678,545.567,100.47,543.72" fill="rgba(28, 83, 142, 0.4)" class="triangle-float1"></path><path d="M706.305,160.821C740.536,158.987,761.172,126.5,777.256,96.227C792.046,68.389,801.056,36.873,787.203,8.557C771.633,-23.269,741.697,-47.167,706.305,-48.801C668.13,-50.564,629.941,-32.949,611.342,0.436C593.154,33.083,601.8,72.45,620.84,104.607C639.46,136.055,669.81,162.776,706.305,160.821" fill="rgba(28, 83, 142, 0.4)" class="triangle-float3"></path><path d="M55.82546291524118-10.975939334397609L129.40286427441157 133.76869423416343 208.77392331111702 16.096260076823356z" fill="rgba(28, 83, 142, 0.4)" class="triangle-float2"></path><path d="M647.1498036366843 475.77668218782907L611.0569658759783 553.1780225464918 745.2053952943254 568.6166090082194z" fill="rgba(28, 83, 142, 0.4)" class="triangle-float1"></path><path d="M474.1137030677346 239.51337676037951L362.06196319417336 237.55750636556675 360.1060927993606 349.609246239128 472.15783267292187 351.56511663394076z" fill="rgba(28, 83, 142, 0.4)" class="triangle-float2"></path></g><defs><mask id="SvgjsMask2507"><rect width="1440" height="560" fill="#ffffff"></rect></mask><radialGradient cx="50%" cy="50%" r="772.53" gradientUnits="userSpaceOnUse" id="SvgjsRadialGradient2508"><stop stop-color="rgba(0, 0, 0, 1)" offset="0.3"></stop><stop stop-color="rgba(0, 0, 0, 1)" offset="0.37"></stop><stop stop-color="rgba(15, 0, 158, 1)" offset="1"></stop></radialGradient><style>
            @keyframes float1 {
                0%{transform: translate(0, 0)}
                50%{transform: translate(-10px, 0)}
                100%{transform: translate(0, 0)}
            }

            .triangle-float1 {
                animation: float1 5s infinite;
            }

            @keyframes float2 {
                0%{transform: translate(0, 0)}
                50%{transform: translate(-5px, -5px)}
                100%{transform: translate(0, 0)}
            }

            .triangle-float2 {
                animation: float2 4s infinite;
            }

            @keyframes float3 {
                0%{transform: translate(0, 0)}
                50%{transform: translate(0, -10px)}
                100%{transform: translate(0, 0)}
            }

            .triangle-float3 {
                animation: float3 6s infinite;
            }
        </style></defs></svg>